<svg width="219" height="51" viewBox="0 0 219 51" fill="none" xmlns="http://www.w3.org/2000/svg">
<path d="M10.1944 36.3291H27.9339C28.8171 36.3291 29.4698 36.3675 29.8922 36.4443C30.353 36.4827 30.8713 36.6555 31.4473 36.9627C32.484 37.5002 33.0024 38.9977 33.0024 41.4552C33.0024 44.143 32.292 45.7172 30.8713 46.178C30.2186 46.4084 29.2202 46.5236 27.8763 46.5236H5.06843C2.38062 46.5236 0.806341 45.794 0.345575 44.3349C0.115192 43.7206 0 42.7415 0 41.3976V9.37431C0 7.41606 0.364773 6.09136 1.09432 5.40021C1.82387 4.67066 3.20616 4.30589 5.24121 4.30589H27.9339C28.8171 4.30589 29.4698 4.34429 29.8922 4.42108C30.353 4.45948 30.8713 4.63227 31.4473 4.93945C32.484 5.47701 33.0024 6.9745 33.0024 9.43192C33.0024 12.1197 32.292 13.694 30.8713 14.1548C30.2186 14.3851 29.2202 14.5003 27.8763 14.5003H10.1944V20.3175H21.5984C22.4815 20.3175 23.1343 20.3559 23.5567 20.4327C24.0174 20.4711 24.5358 20.6439 25.1117 20.9511C26.1485 21.4886 26.6668 22.9861 26.6668 25.4435C26.6668 28.1313 25.9373 29.7056 24.4782 30.1664C23.8254 30.3968 22.8271 30.512 21.4832 30.512H10.1944V36.3291Z" fill="#012060"/>
<path d="M36.7844 9.37651C36.7844 8.49338 36.8036 7.84062 36.842 7.41826C36.9188 6.95749 37.1108 6.43913 37.418 5.86317C37.9555 4.82645 39.453 4.30809 41.9104 4.30809C44.5982 4.30809 46.1917 5.01843 46.6909 6.43913C46.8829 7.09188 46.9789 8.09021 46.9789 9.43411V41.4573C46.9789 42.3789 46.9405 43.0508 46.8637 43.4732C46.8253 43.8956 46.6525 44.3947 46.3453 44.9707C45.8078 46.0074 44.3103 46.5258 41.8528 46.5258C39.165 46.5258 37.5908 45.7962 37.13 44.3371C36.8996 43.7228 36.7844 42.7437 36.7844 41.3998V9.37651Z" fill="#01B0F1"/>
<path d="M78.0121 35.4641L79.0488 34.7153C80.3543 33.9474 81.2758 33.5634 81.8134 33.5634C83.0037 33.5634 84.29 34.6385 85.6723 36.7888C86.517 38.1327 86.9394 39.2078 86.9394 40.0141C86.9394 40.8205 86.6706 41.4924 86.1331 42.03C85.6339 42.5675 85.0388 43.0475 84.3476 43.4699C83.6565 43.8922 82.9845 44.2954 82.3318 44.6794C81.7174 45.0634 80.4311 45.5625 78.4728 46.1769C76.5146 46.7912 74.6139 47.0984 72.7709 47.0984C70.9662 47.0984 69.1231 46.868 67.2417 46.4073C65.3986 45.9081 63.4787 45.1017 61.4821 43.9882C59.5238 42.8363 57.7576 41.454 56.1833 39.8413C54.609 38.1903 53.3035 36.0976 52.2668 33.5634C51.2684 30.9908 50.7693 28.207 50.7693 25.212C50.7693 22.217 51.2684 19.51 52.2668 17.091C53.2651 14.6336 54.5322 12.6178 56.0681 11.0435C57.6424 9.43079 59.4278 8.08688 61.4245 7.01176C65.1874 4.93832 68.9695 3.90159 72.7709 3.90159C74.5755 3.90159 76.3994 4.18958 78.2425 4.76553C80.1239 5.30309 81.5446 5.85985 82.5045 6.43581L83.8868 7.24215C84.578 7.66451 85.1155 8.01009 85.4995 8.27887C86.4978 9.08521 86.997 10.0067 86.997 11.0435C86.997 12.0418 86.5938 13.0977 85.7875 14.2112C84.29 16.2847 82.9461 17.3214 81.7558 17.3214C81.0647 17.3214 80.0855 16.899 78.8184 16.0543C77.2057 14.7488 75.0555 14.096 72.3677 14.096C69.8719 14.096 67.4145 14.96 64.9954 16.6879C63.8435 17.5326 62.8836 18.7229 62.1156 20.2588C61.3477 21.7947 60.9637 23.5417 60.9637 25.5C60.9637 27.4199 61.3477 29.1477 62.1156 30.6836C62.8836 32.2195 63.8627 33.429 65.053 34.3121C67.3953 36.0016 69.8335 36.8464 72.3677 36.8464C73.558 36.8464 74.6715 36.6928 75.7082 36.3856C76.7834 36.0784 77.5513 35.7712 78.0121 35.4641Z" fill="#01B0F1"/>
<path fill-rule="evenodd" clip-rule="evenodd" d="M118.713 36.3291H100.973V30.512H112.262C113.606 30.512 114.604 30.3968 115.257 30.1664C116.716 29.7056 117.446 28.1313 117.446 25.4435C117.446 22.9861 116.927 21.4886 115.891 20.9511C115.315 20.6439 114.796 20.4711 114.336 20.4327C113.913 20.3559 113.26 20.3175 112.377 20.3175H100.973V14.5003H118.655C119.999 14.5003 120.998 14.3851 121.65 14.1548C123.071 13.694 123.781 12.1197 123.781 9.43192C123.781 6.9745 123.263 5.47701 122.226 4.93945C121.65 4.63227 121.132 4.45948 120.671 4.42108C120.249 4.34429 119.596 4.30589 118.713 4.30589H96.0201C93.9851 4.30589 92.6028 4.67066 91.8732 5.40021C91.1437 6.09136 90.7789 7.41606 90.7789 9.37431V41.3976C90.7789 42.7415 90.8941 43.7206 91.1245 44.3349C91.5853 45.794 93.1596 46.5236 95.8474 46.5236H118.655C119.999 46.5236 120.998 46.4084 121.65 46.178C123.071 45.7172 123.781 44.143 123.781 41.4552C123.781 38.9977 123.263 37.5002 122.226 36.9627C121.65 36.6555 121.132 36.4827 120.671 36.4443C120.249 36.3675 119.596 36.3291 118.713 36.3291Z" fill="#012060"/>
<line x1="132.156" y1="10.691" x2="132.085" y2="40.311" stroke="#C7C7C7" stroke-width="0.80678"/>
<path d="M142.231 37.2336V13.7636H150.597C152.416 13.7636 153.924 14.0769 155.124 14.7034C156.331 15.3298 157.233 16.197 157.828 17.3048C158.424 18.4049 158.722 19.677 158.722 21.1209C158.722 22.5572 158.421 23.8217 157.817 24.9142C157.221 25.999 156.32 26.8433 155.112 27.4468C153.913 28.0504 152.404 28.3522 150.586 28.3522H144.248V25.3038H150.265C151.411 25.3038 152.343 25.1396 153.061 24.811C153.787 24.4825 154.318 24.005 154.654 23.3785C154.99 22.7521 155.158 21.9995 155.158 21.1209C155.158 20.2347 154.986 19.4669 154.643 18.8175C154.306 18.1681 153.775 17.6715 153.05 17.3277C152.331 16.9763 151.388 16.8005 150.219 16.8005H145.773V37.2336H142.231ZM153.817 26.6446L159.616 37.2336H155.582L149.898 26.6446H153.817ZM192.498 37.2336V13.7636H207.212V16.812H196.039V23.963H206.444V26.9999H196.039V34.1853H207.35V37.2336H192.498Z" fill="#01B0F1"/>
<path d="M166.572 13.7636V37.2336H163.031V13.7636H166.572ZM184.53 19.9291C184.408 18.8442 183.904 18.0038 183.017 17.4079C182.131 16.8044 181.016 16.5026 179.671 16.5026C178.708 16.5026 177.876 16.6554 177.173 16.961C176.47 17.2589 175.924 17.6715 175.534 18.1986C175.152 18.7182 174.961 19.3103 174.961 19.9749C174.961 20.5327 175.091 21.014 175.351 21.4189C175.618 21.8238 175.966 22.1638 176.394 22.4388C176.829 22.7062 177.295 22.9316 177.792 23.115C178.288 23.2907 178.766 23.4358 179.224 23.5504L181.516 24.1464C182.265 24.3297 183.033 24.578 183.82 24.8913C184.606 25.2045 185.336 25.617 186.008 26.1289C186.681 26.6408 187.223 27.2749 187.636 28.0313C188.056 28.7876 188.266 29.693 188.266 30.7473C188.266 32.0766 187.922 33.257 187.235 34.2884C186.555 35.3198 185.565 36.1335 184.267 36.7294C182.975 37.3253 181.413 37.6233 179.579 37.6233C177.822 37.6233 176.302 37.3444 175.018 36.7867C173.735 36.229 172.73 35.4382 172.004 34.4145C171.279 33.3831 170.877 32.1607 170.801 30.7473H174.354C174.422 31.5953 174.697 32.302 175.179 32.8674C175.668 33.4251 176.29 33.8415 177.047 34.1165C177.811 34.3839 178.647 34.5176 179.556 34.5176C180.557 34.5176 181.447 34.361 182.227 34.0477C183.014 33.7269 183.632 33.2838 184.083 32.7184C184.534 32.1454 184.759 31.4769 184.759 30.7129C184.759 30.0177 184.561 29.4485 184.163 29.0054C183.774 28.5623 183.243 28.1955 182.57 27.9052C181.906 27.6149 181.153 27.359 180.313 27.1374L177.54 26.381C175.66 25.8692 174.17 25.1166 173.07 24.1234C171.978 23.1302 171.431 21.8162 171.431 20.1812C171.431 18.8289 171.798 17.6486 172.532 16.6401C173.265 15.6316 174.258 14.8485 175.511 14.2908C176.764 13.7254 178.177 13.4428 179.751 13.4428C181.34 13.4428 182.742 13.7216 183.957 14.2793C185.179 14.8371 186.142 15.6049 186.845 16.5828C187.548 17.5531 187.915 18.6685 187.945 19.9291H184.53Z" fill="#012060"/>
<path d="M208.702 4.80006L207.516 3.67605L217.706 1.80976C217.837 1.80935 217.968 1.83498 218.09 1.88518C218.211 1.93538 218.322 2.00917 218.415 2.10229C218.508 2.1954 218.582 2.30602 218.632 2.42776C218.682 2.5495 218.708 2.67997 218.708 2.81166L216.713 12.8725L215.389 11.9627L217.204 3.31509L208.702 4.80006Z" fill="#012060" stroke="#012060" stroke-width="0.45"/>
</svg>
